
<svg width="73px" height="31px" viewBox="0 0 73 31" version="1.1" xmlns="http://www.w3.org/2000/svg" xmlns:xlink="http://www.w3.org/1999/xlink">
    <!-- Generator: Sketch 3.8.3 (29802) - http://www.bohemiancoding.com/sketch -->
    <desc>Created with Sketch.</desc>
    <defs>
        <path d="M71.2,7.5 C70.5,3.3 66.8,0 62.3,0 C57.8,0 54.1,3.3 53.4,7.5 L55.6,7.5 C56.3,4.4 59,2.1 62.3,2.1 C65.6,2.1 68.3,4.4 69,7.5 L71.2,7.5 L71.2,7.5 Z" id="path-1"></path>
        <path d="M17.5,14.8 C15.3,14.8 13.4,16.1 12.5,17.4 C12,15.8 10.6,14.8 8.5,14.8 C6.3,14.8 4.4,16.2 3.8,17 L3.8,15.1 L0,15.1 L0,29.6 L3.8,29.6 L3.8,19.9 C4.4,19.1 5.5,18.2 6.8,18.2 C8.4,18.2 9,19.2 9,20.5 L9,29.6 L12.8,29.6 L12.8,19.8 C13.3,19 14.4,18.1 15.8,18.1 C17.4,18.1 18,19.1 18,20.4 L18,29.5 L21.8,29.5 L21.8,19.2 C21.8,16.2 20.2,14.8 17.5,14.8 L17.5,14.8 Z" id="path-2"></path>
        <path d="M32.2,14.8 C27.4,14.8 24.6,18.3 24.6,22.4 C24.6,26.5 27.5,30 32.2,30 C37,30 39.9,26.5 39.9,22.4 C39.9,18.3 37,14.8 32.2,14.8 L32.2,14.8 Z M32.2,26.6 C29.8,26.6 28.5,24.7 28.5,22.4 C28.5,20.2 29.8,18.2 32.2,18.2 C34.6,18.2 35.9,20.1 35.9,22.4 C36,24.7 34.6,26.6 32.2,26.6 L32.2,26.6 Z" id="path-3"></path>
        <path d="M48.6,26.6 C47.8,26.6 47.3,25.9 47.3,25 L47.3,18.5 L50.2,18.5 L50.2,15.2 L47.3,15.2 L47.3,11.2 L43.5,11.2 L43.5,15.2 L41.1,15.2 L41.1,18.5 L43.5,18.5 L43.5,26 C43.5,28.6 44.9,30 47.6,30 C49.2,30 50.2,29.6 50.8,29.1 L50,26.2 C49.7,26.4 49.2,26.6 48.6,26.6 L48.6,26.6 Z" id="path-4"></path>
        <rect id="path-5" x="52.9" y="15.2" width="3.8" height="14.5"></rect>
        <path d="M54.8,9.1 C53.6,9.1 52.5,10.1 52.5,11.3 C52.5,12.6 53.5,13.6 54.8,13.6 C56.1,13.6 57.1,12.6 57.1,11.3 C57,10.1 56,9.1 54.8,9.1 L54.8,9.1 Z" id="path-6"></path>
        <rect id="path-7" x="60.4" y="9.7" width="3.8" height="20"></rect>
        <path d="M69.9,13.6 C71.2,13.6 72.2,12.6 72.2,11.3 C72.2,10 71.2,9.1 69.9,9.1 C68.7,9.1 67.6,10.1 67.6,11.3 C67.6,12.6 68.7,13.6 69.9,13.6 L69.9,13.6 Z" id="path-8"></path>
        <rect id="path-9" x="68" y="15.2" width="3.8" height="14.5"></rect>
    </defs>
    <g id="Shape" stroke="none" fill="none" fill-rule="evenodd">
        <use fill="#FFFFFF" xlink:href="#path-1"></use>
        <use fill="#49C3E7" xlink:href="#path-1"></use>
    </g>
    <g id="Shape" stroke="none" fill="none" fill-rule="evenodd">
        <use fill="#FFFFFF" xlink:href="#path-2"></use>
        <use fill="#49C3E7" xlink:href="#path-2"></use>
    </g>
    <g id="Shape" stroke="none" fill="none" fill-rule="evenodd">
        <use fill="#FFFFFF" xlink:href="#path-3"></use>
        <use fill="#49C3E7" xlink:href="#path-3"></use>
    </g>
    <g id="Shape" stroke="none" fill="none" fill-rule="evenodd">
        <use fill="#FFFFFF" xlink:href="#path-4"></use>
        <use fill="#49C3E7" xlink:href="#path-4"></use>
    </g>
    <g id="Rectangle-path" stroke="none" fill="none" fill-rule="evenodd">
        <use fill="#FFFFFF" xlink:href="#path-5"></use>
        <use fill="#49C3E7" xlink:href="#path-5"></use>
    </g>
    <g id="Shape" stroke="none" fill="none" fill-rule="evenodd">
        <use fill="#FFFFFF" xlink:href="#path-6"></use>
        <use fill="#49C3E7" xlink:href="#path-6"></use>
    </g>
    <g id="Rectangle-path" stroke="none" fill="none" fill-rule="evenodd">
        <use fill="#FFFFFF" xlink:href="#path-7"></use>
        <use fill="#49C3E7" xlink:href="#path-7"></use>
    </g>
    <g id="Shape" stroke="none" fill="none" fill-rule="evenodd">
        <use fill="#FFFFFF" xlink:href="#path-8"></use>
        <use fill="#49C3E7" xlink:href="#path-8"></use>
    </g>
    <g id="Rectangle-path" stroke="none" fill="none" fill-rule="evenodd">
        <use fill="#FFFFFF" xlink:href="#path-9"></use>
        <use fill="#49C3E7" xlink:href="#path-9"></use>
    </g>
</svg>
